# Wavefront OBJ: Object 04 - Striped Sun Awning & Cantilever Hardware
# Vertices: 496, Faces: 260
v -3.3000 0.4500 0.0200
v 3.3000 0.4500 0.0200
v 3.3000 1.7500 0.0200
v -3.3000 1.7500 0.0200
v -3.3000 0.4500 -0.0600
v 3.3000 0.4500 -0.0600
v 3.3000 1.7500 -0.0600
v -3.3000 1.7500 -0.0600
v -3.3000 1.7500 0.0200
v 3.3000 1.7500 0.0200
v 3.3000 2.1500 0.0200
v -3.3000 2.1500 0.0200
v -3.3000 1.7500 -0.0600
v 3.3000 1.7500 -0.0600
v 3.3000 2.1500 -0.0600
v -3.3000 2.1500 -0.0600
v -3.2000 0.8500 1.2500
v -2.8444 0.8500 1.2500
v -2.8444 1.6500 0.0500
v -3.2000 1.6500 0.0500
v -3.2000 1.6350 0.0400
v -2.8444 1.6350 0.0400
v -2.8444 0.8350 1.2400
v -3.2000 0.8350 1.2400
v -3.2000 0.6300 1.2500
v -2.8444 0.6300 1.2500
v -2.8444 0.8500 1.2500
v -3.2000 0.8500 1.2500
v -3.2025 0.6100 1.2575
v -2.8419 0.6100 1.2575
v -2.8419 0.6300 1.2575
v -3.2025 0.6300 1.2575
v -3.2025 0.6100 1.2425
v -2.8419 0.6100 1.2425
v -2.8419 0.6300 1.2425
v -3.2025 0.6300 1.2425
v -2.8444 0.8500 1.2500
v -2.4889 0.8500 1.2500
v -2.4889 1.6500 0.0500
v -2.8444 1.6500 0.0500
v -2.8444 1.6350 0.0400
v -2.4889 1.6350 0.0400
v -2.4889 0.8350 1.2400
v -2.8444 0.8350 1.2400
v -2.8444 0.6300 1.2500
v -2.4889 0.6300 1.2500
v -2.4889 0.8500 1.2500
v -2.8444 0.8500 1.2500
v -2.8469 0.6100 1.2575
v -2.4864 0.6100 1.2575
v -2.4864 0.6300 1.2575
v -2.8469 0.6300 1.2575
v -2.8469 0.6100 1.2425
v -2.4864 0.6100 1.2425
v -2.4864 0.6300 1.2425
v -2.8469 0.6300 1.2425
v -2.4889 0.8500 1.2500
v -2.1333 0.8500 1.2500
v -2.1333 1.6500 0.0500
v -2.4889 1.6500 0.0500
v -2.4889 1.6350 0.0400
v -2.1333 1.6350 0.0400
v -2.1333 0.8350 1.2400
v -2.4889 0.8350 1.2400
v -2.4889 0.6300 1.2500
v -2.1333 0.6300 1.2500
v -2.1333 0.8500 1.2500
v -2.4889 0.8500 1.2500
v -2.4914 0.6100 1.2575
v -2.1308 0.6100 1.2575
v -2.1308 0.6300 1.2575
v -2.4914 0.6300 1.2575
v -2.4914 0.6100 1.2425
v -2.1308 0.6100 1.2425
v -2.1308 0.6300 1.2425
v -2.4914 0.6300 1.2425
v -2.1333 0.8500 1.2500
v -1.7778 0.8500 1.2500
v -1.7778 1.6500 0.0500
v -2.1333 1.6500 0.0500
v -2.1333 1.6350 0.0400
v -1.7778 1.6350 0.0400
v -1.7778 0.8350 1.2400
v -2.1333 0.8350 1.2400
v -2.1333 0.6300 1.2500
v -1.7778 0.6300 1.2500
v -1.7778 0.8500 1.2500
v -2.1333 0.8500 1.2500
v -2.1358 0.6100 1.2575
v -1.7753 0.6100 1.2575
v -1.7753 0.6300 1.2575
v -2.1358 0.6300 1.2575
v -2.1358 0.6100 1.2425
v -1.7753 0.6100 1.2425
v -1.7753 0.6300 1.2425
v -2.1358 0.6300 1.2425
v -1.7778 0.8500 1.2500
v -1.4222 0.8500 1.2500
v -1.4222 1.6500 0.0500
v -1.7778 1.6500 0.0500
v -1.7778 1.6350 0.0400
v -1.4222 1.6350 0.0400
v -1.4222 0.8350 1.2400
v -1.7778 0.8350 1.2400
v -1.7778 0.6300 1.2500
v -1.4222 0.6300 1.2500
v -1.4222 0.8500 1.2500
v -1.7778 0.8500 1.2500
v -1.7803 0.6100 1.2575
v -1.4197 0.6100 1.2575
v -1.4197 0.6300 1.2575
v -1.7803 0.6300 1.2575
v -1.7803 0.6100 1.2425
v -1.4197 0.6100 1.2425
v -1.4197 0.6300 1.2425
v -1.7803 0.6300 1.2425
v -1.4222 0.8500 1.2500
v -1.0667 0.8500 1.2500
v -1.0667 1.6500 0.0500
v -1.4222 1.6500 0.0500
v -1.4222 1.6350 0.0400
v -1.0667 1.6350 0.0400
v -1.0667 0.8350 1.2400
v -1.4222 0.8350 1.2400
v -1.4222 0.6300 1.2500
v -1.0667 0.6300 1.2500
v -1.0667 0.8500 1.2500
v -1.4222 0.8500 1.2500
v -1.4247 0.6100 1.2575
v -1.0642 0.6100 1.2575
v -1.0642 0.6300 1.2575
v -1.4247 0.6300 1.2575
v -1.4247 0.6100 1.2425
v -1.0642 0.6100 1.2425
v -1.0642 0.6300 1.2425
v -1.4247 0.6300 1.2425
v -1.0667 0.8500 1.2500
v -0.7111 0.8500 1.2500
v -0.7111 1.6500 0.0500
v -1.0667 1.6500 0.0500
v -1.0667 1.6350 0.0400
v -0.7111 1.6350 0.0400
v -0.7111 0.8350 1.2400
v -1.0667 0.8350 1.2400
v -1.0667 0.6300 1.2500
v -0.7111 0.6300 1.2500
v -0.7111 0.8500 1.2500
v -1.0667 0.8500 1.2500
v -1.0692 0.6100 1.2575
v -0.7086 0.6100 1.2575
v -0.7086 0.6300 1.2575
v -1.0692 0.6300 1.2575
v -1.0692 0.6100 1.2425
v -0.7086 0.6100 1.2425
v -0.7086 0.6300 1.2425
v -1.0692 0.6300 1.2425
v -0.7111 0.8500 1.2500
v -0.3556 0.8500 1.2500
v -0.3556 1.6500 0.0500
v -0.7111 1.6500 0.0500
v -0.7111 1.6350 0.0400
v -0.3556 1.6350 0.0400
v -0.3556 0.8350 1.2400
v -0.7111 0.8350 1.2400
v -0.7111 0.6300 1.2500
v -0.3556 0.6300 1.2500
v -0.3556 0.8500 1.2500
v -0.7111 0.8500 1.2500
v -0.7136 0.6100 1.2575
v -0.3531 0.6100 1.2575
v -0.3531 0.6300 1.2575
v -0.7136 0.6300 1.2575
v -0.7136 0.6100 1.2425
v -0.3531 0.6100 1.2425
v -0.3531 0.6300 1.2425
v -0.7136 0.6300 1.2425
v -0.3556 0.8500 1.2500
v -0.0000 0.8500 1.2500
v -0.0000 1.6500 0.0500
v -0.3556 1.6500 0.0500
v -0.3556 1.6350 0.0400
v -0.0000 1.6350 0.0400
v -0.0000 0.8350 1.2400
v -0.3556 0.8350 1.2400
v -0.3556 0.6300 1.2500
v -0.0000 0.6300 1.2500
v -0.0000 0.8500 1.2500
v -0.3556 0.8500 1.2500
v -0.3581 0.6100 1.2575
v 0.0025 0.6100 1.2575
v 0.0025 0.6300 1.2575
v -0.3581 0.6300 1.2575
v -0.3581 0.6100 1.2425
v 0.0025 0.6100 1.2425
v 0.0025 0.6300 1.2425
v -0.3581 0.6300 1.2425
v 0.0000 0.8500 1.2500
v 0.3556 0.8500 1.2500
v 0.3556 1.6500 0.0500
v 0.0000 1.6500 0.0500
v 0.0000 1.6350 0.0400
v 0.3556 1.6350 0.0400
v 0.3556 0.8350 1.2400
v 0.0000 0.8350 1.2400
v 0.0000 0.6300 1.2500
v 0.3556 0.6300 1.2500
v 0.3556 0.8500 1.2500
v 0.0000 0.8500 1.2500
v -0.0025 0.6100 1.2575
v 0.3581 0.6100 1.2575
v 0.3581 0.6300 1.2575
v -0.0025 0.6300 1.2575
v -0.0025 0.6100 1.2425
v 0.3581 0.6100 1.2425
v 0.3581 0.6300 1.2425
v -0.0025 0.6300 1.2425
v 0.3556 0.8500 1.2500
v 0.7111 0.8500 1.2500
v 0.7111 1.6500 0.0500
v 0.3556 1.6500 0.0500
v 0.3556 1.6350 0.0400
v 0.7111 1.6350 0.0400
v 0.7111 0.8350 1.2400
v 0.3556 0.8350 1.2400
v 0.3556 0.6300 1.2500
v 0.7111 0.6300 1.2500
v 0.7111 0.8500 1.2500
v 0.3556 0.8500 1.2500
v 0.3531 0.6100 1.2575
v 0.7136 0.6100 1.2575
v 0.7136 0.6300 1.2575
v 0.3531 0.6300 1.2575
v 0.3531 0.6100 1.2425
v 0.7136 0.6100 1.2425
v 0.7136 0.6300 1.2425
v 0.3531 0.6300 1.2425
v 0.7111 0.8500 1.2500
v 1.0667 0.8500 1.2500
v 1.0667 1.6500 0.0500
v 0.7111 1.6500 0.0500
v 0.7111 1.6350 0.0400
v 1.0667 1.6350 0.0400
v 1.0667 0.8350 1.2400
v 0.7111 0.8350 1.2400
v 0.7111 0.6300 1.2500
v 1.0667 0.6300 1.2500
v 1.0667 0.8500 1.2500
v 0.7111 0.8500 1.2500
v 0.7086 0.6100 1.2575
v 1.0692 0.6100 1.2575
v 1.0692 0.6300 1.2575
v 0.7086 0.6300 1.2575
v 0.7086 0.6100 1.2425
v 1.0692 0.6100 1.2425
v 1.0692 0.6300 1.2425
v 0.7086 0.6300 1.2425
v 1.0667 0.8500 1.2500
v 1.4222 0.8500 1.2500
v 1.4222 1.6500 0.0500
v 1.0667 1.6500 0.0500
v 1.0667 1.6350 0.0400
v 1.4222 1.6350 0.0400
v 1.4222 0.8350 1.2400
v 1.0667 0.8350 1.2400
v 1.0667 0.6300 1.2500
v 1.4222 0.6300 1.2500
v 1.4222 0.8500 1.2500
v 1.0667 0.8500 1.2500
v 1.0642 0.6100 1.2575
v 1.4247 0.6100 1.2575
v 1.4247 0.6300 1.2575
v 1.0642 0.6300 1.2575
v 1.0642 0.6100 1.2425
v 1.4247 0.6100 1.2425
v 1.4247 0.6300 1.2425
v 1.0642 0.6300 1.2425
v 1.4222 0.8500 1.2500
v 1.7778 0.8500 1.2500
v 1.7778 1.6500 0.0500
v 1.4222 1.6500 0.0500
v 1.4222 1.6350 0.0400
v 1.7778 1.6350 0.0400
v 1.7778 0.8350 1.2400
v 1.4222 0.8350 1.2400
v 1.4222 0.6300 1.2500
v 1.7778 0.6300 1.2500
v 1.7778 0.8500 1.2500
v 1.4222 0.8500 1.2500
v 1.4197 0.6100 1.2575
v 1.7803 0.6100 1.2575
v 1.7803 0.6300 1.2575
v 1.4197 0.6300 1.2575
v 1.4197 0.6100 1.2425
v 1.7803 0.6100 1.2425
v 1.7803 0.6300 1.2425
v 1.4197 0.6300 1.2425
v 1.7778 0.8500 1.2500
v 2.1333 0.8500 1.2500
v 2.1333 1.6500 0.0500
v 1.7778 1.6500 0.0500
v 1.7778 1.6350 0.0400
v 2.1333 1.6350 0.0400
v 2.1333 0.8350 1.2400
v 1.7778 0.8350 1.2400
v 1.7778 0.6300 1.2500
v 2.1333 0.6300 1.2500
v 2.1333 0.8500 1.2500
v 1.7778 0.8500 1.2500
v 1.7753 0.6100 1.2575
v 2.1358 0.6100 1.2575
v 2.1358 0.6300 1.2575
v 1.7753 0.6300 1.2575
v 1.7753 0.6100 1.2425
v 2.1358 0.6100 1.2425
v 2.1358 0.6300 1.2425
v 1.7753 0.6300 1.2425
v 2.1333 0.8500 1.2500
v 2.4889 0.8500 1.2500
v 2.4889 1.6500 0.0500
v 2.1333 1.6500 0.0500
v 2.1333 1.6350 0.0400
v 2.4889 1.6350 0.0400
v 2.4889 0.8350 1.2400
v 2.1333 0.8350 1.2400
v 2.1333 0.6300 1.2500
v 2.4889 0.6300 1.2500
v 2.4889 0.8500 1.2500
v 2.1333 0.8500 1.2500
v 2.1308 0.6100 1.2575
v 2.4914 0.6100 1.2575
v 2.4914 0.6300 1.2575
v 2.1308 0.6300 1.2575
v 2.1308 0.6100 1.2425
v 2.4914 0.6100 1.2425
v 2.4914 0.6300 1.2425
v 2.1308 0.6300 1.2425
v 2.4889 0.8500 1.2500
v 2.8444 0.8500 1.2500
v 2.8444 1.6500 0.0500
v 2.4889 1.6500 0.0500
v 2.4889 1.6350 0.0400
v 2.8444 1.6350 0.0400
v 2.8444 0.8350 1.2400
v 2.4889 0.8350 1.2400
v 2.4889 0.6300 1.2500
v 2.8444 0.6300 1.2500
v 2.8444 0.8500 1.2500
v 2.4889 0.8500 1.2500
v 2.4864 0.6100 1.2575
v 2.8469 0.6100 1.2575
v 2.8469 0.6300 1.2575
v 2.4864 0.6300 1.2575
v 2.4864 0.6100 1.2425
v 2.8469 0.6100 1.2425
v 2.8469 0.6300 1.2425
v 2.4864 0.6300 1.2425
v 2.8444 0.8500 1.2500
v 3.2000 0.8500 1.2500
v 3.2000 1.6500 0.0500
v 2.8444 1.6500 0.0500
v 2.8444 1.6350 0.0400
v 3.2000 1.6350 0.0400
v 3.2000 0.8350 1.2400
v 2.8444 0.8350 1.2400
v 2.8444 0.6300 1.2500
v 3.2000 0.6300 1.2500
v 3.2000 0.8500 1.2500
v 2.8444 0.8500 1.2500
v 2.8419 0.6100 1.2575
v 3.2025 0.6100 1.2575
v 3.2025 0.6300 1.2575
v 2.8419 0.6300 1.2575
v 2.8419 0.6100 1.2425
v 3.2025 0.6100 1.2425
v 3.2025 0.6300 1.2425
v 2.8419 0.6300 1.2425
v -3.2000 0.6300 1.2500
v -3.2000 0.8500 1.2500
v -3.2000 1.6500 0.0500
v -3.2000 0.6300 1.2500
v 3.2000 0.8500 1.2500
v 3.2000 0.6300 1.2500
v 3.2000 0.6300 1.2500
v 3.2000 1.6500 0.0500
v -3.2400 0.8275 1.2725
v 3.2400 0.8275 1.2725
v 3.2400 0.8725 1.2725
v -3.2400 0.8725 1.2725
v -3.2400 0.8275 1.2275
v 3.2400 0.8275 1.2275
v 3.2400 0.8725 1.2275
v -3.2400 0.8725 1.2275
v -3.2400 1.6275 0.0725
v 3.2400 1.6275 0.0725
v 3.2400 1.6725 0.0725
v -3.2400 1.6725 0.0725
v -3.2400 1.6275 0.0275
v 3.2400 1.6275 0.0275
v 3.2400 1.6725 0.0275
v -3.2400 1.6725 0.0275
v -3.0100 1.5700 0.0600
v -2.8900 1.5700 0.0600
v -2.8900 1.7300 0.0600
v -3.0100 1.7300 0.0600
v -3.0100 1.5700 0.0200
v -2.8900 1.5700 0.0200
v -2.8900 1.7300 0.0200
v -3.0100 1.7300 0.0200
v -3.0100 0.4600 0.0600
v -2.8900 0.4600 0.0600
v -2.8900 0.6400 0.0600
v -3.0100 0.6400 0.0600
v -3.0100 0.4600 0.0200
v -2.8900 0.4600 0.0200
v -2.8900 0.6400 0.0200
v -3.0100 0.6400 0.0200
v -2.9710 0.6790 1.2685
v -2.9290 0.6790 1.2685
v -2.9290 0.7210 1.2685
v -2.9710 0.7210 1.2685
v -2.9710 0.6790 0.0315
v -2.9290 0.6790 0.0315
v -2.9290 0.7210 0.0315
v -2.9710 0.7210 0.0315
v -1.1800 1.5700 0.0600
v -1.0600 1.5700 0.0600
v -1.0600 1.7300 0.0600
v -1.1800 1.7300 0.0600
v -1.1800 1.5700 0.0200
v -1.0600 1.5700 0.0200
v -1.0600 1.7300 0.0200
v -1.1800 1.7300 0.0200
v -1.1800 0.4600 0.0600
v -1.0600 0.4600 0.0600
v -1.0600 0.6400 0.0600
v -1.1800 0.6400 0.0600
v -1.1800 0.4600 0.0200
v -1.0600 0.4600 0.0200
v -1.0600 0.6400 0.0200
v -1.1800 0.6400 0.0200
v -1.1410 0.6790 1.2685
v -1.0990 0.6790 1.2685
v -1.0990 0.7210 1.2685
v -1.1410 0.7210 1.2685
v -1.1410 0.6790 0.0315
v -1.0990 0.6790 0.0315
v -1.0990 0.7210 0.0315
v -1.1410 0.7210 0.0315
v 1.0600 1.5700 0.0600
v 1.1800 1.5700 0.0600
v 1.1800 1.7300 0.0600
v 1.0600 1.7300 0.0600
v 1.0600 1.5700 0.0200
v 1.1800 1.5700 0.0200
v 1.1800 1.7300 0.0200
v 1.0600 1.7300 0.0200
v 1.0600 0.4600 0.0600
v 1.1800 0.4600 0.0600
v 1.1800 0.6400 0.0600
v 1.0600 0.6400 0.0600
v 1.0600 0.4600 0.0200
v 1.1800 0.4600 0.0200
v 1.1800 0.6400 0.0200
v 1.0600 0.6400 0.0200
v 1.0990 0.6790 1.2685
v 1.1410 0.6790 1.2685
v 1.1410 0.7210 1.2685
v 1.0990 0.7210 1.2685
v 1.0990 0.6790 0.0315
v 1.1410 0.6790 0.0315
v 1.1410 0.7210 0.0315
v 1.0990 0.7210 0.0315
v 2.8900 1.5700 0.0600
v 3.0100 1.5700 0.0600
v 3.0100 1.7300 0.0600
v 2.8900 1.7300 0.0600
v 2.8900 1.5700 0.0200
v 3.0100 1.5700 0.0200
v 3.0100 1.7300 0.0200
v 2.8900 1.7300 0.0200
v 2.8900 0.4600 0.0600
v 3.0100 0.4600 0.0600
v 3.0100 0.6400 0.0600
v 2.8900 0.6400 0.0600
v 2.8900 0.4600 0.0200
v 3.0100 0.4600 0.0200
v 3.0100 0.6400 0.0200
v 2.8900 0.6400 0.0200
v 2.9290 0.6790 1.2685
v 2.9710 0.6790 1.2685
v 2.9710 0.7210 1.2685
v 2.9290 0.7210 1.2685
v 2.9290 0.6790 0.0315
v 2.9710 0.6790 0.0315
v 2.9710 0.7210 0.0315
v 2.9290 0.7210 0.0315
f 1 2 3 4
f 6 5 8 7
f 5 1 4 8
f 2 6 7 3
f 4 3 7 8
f 5 6 2 1
f 9 10 11 12
f 14 13 16 15
f 13 9 12 16
f 10 14 15 11
f 12 11 15 16
f 13 14 10 9
f 17 18 19 20
f 21 22 23 24
f 25 26 27 28
f 29 30 31 32
f 34 33 36 35
f 33 29 32 36
f 30 34 35 31
f 32 31 35 36
f 33 34 30 29
f 37 38 39 40
f 41 42 43 44
f 45 46 47 48
f 49 50 51 52
f 54 53 56 55
f 53 49 52 56
f 50 54 55 51
f 52 51 55 56
f 53 54 50 49
f 57 58 59 60
f 61 62 63 64
f 65 66 67 68
f 69 70 71 72
f 74 73 76 75
f 73 69 72 76
f 70 74 75 71
f 72 71 75 76
f 73 74 70 69
f 77 78 79 80
f 81 82 83 84
f 85 86 87 88
f 89 90 91 92
f 94 93 96 95
f 93 89 92 96
f 90 94 95 91
f 92 91 95 96
f 93 94 90 89
f 97 98 99 100
f 101 102 103 104
f 105 106 107 108
f 109 110 111 112
f 114 113 116 115
f 113 109 112 116
f 110 114 115 111
f 112 111 115 116
f 113 114 110 109
f 117 118 119 120
f 121 122 123 124
f 125 126 127 128
f 129 130 131 132
f 134 133 136 135
f 133 129 132 136
f 130 134 135 131
f 132 131 135 136
f 133 134 130 129
f 137 138 139 140
f 141 142 143 144
f 145 146 147 148
f 149 150 151 152
f 154 153 156 155
f 153 149 152 156
f 150 154 155 151
f 152 151 155 156
f 153 154 150 149
f 157 158 159 160
f 161 162 163 164
f 165 166 167 168
f 169 170 171 172
f 174 173 176 175
f 173 169 172 176
f 170 174 175 171
f 172 171 175 176
f 173 174 170 169
f 177 178 179 180
f 181 182 183 184
f 185 186 187 188
f 189 190 191 192
f 194 193 196 195
f 193 189 192 196
f 190 194 195 191
f 192 191 195 196
f 193 194 190 189
f 197 198 199 200
f 201 202 203 204
f 205 206 207 208
f 209 210 211 212
f 214 213 216 215
f 213 209 212 216
f 210 214 215 211
f 212 211 215 216
f 213 214 210 209
f 217 218 219 220
f 221 222 223 224
f 225 226 227 228
f 229 230 231 232
f 234 233 236 235
f 233 229 232 236
f 230 234 235 231
f 232 231 235 236
f 233 234 230 229
f 237 238 239 240
f 241 242 243 244
f 245 246 247 248
f 249 250 251 252
f 254 253 256 255
f 253 249 252 256
f 250 254 255 251
f 252 251 255 256
f 253 254 250 249
f 257 258 259 260
f 261 262 263 264
f 265 266 267 268
f 269 270 271 272
f 274 273 276 275
f 273 269 272 276
f 270 274 275 271
f 272 271 275 276
f 273 274 270 269
f 277 278 279 280
f 281 282 283 284
f 285 286 287 288
f 289 290 291 292
f 294 293 296 295
f 293 289 292 296
f 290 294 295 291
f 292 291 295 296
f 293 294 290 289
f 297 298 299 300
f 301 302 303 304
f 305 306 307 308
f 309 310 311 312
f 314 313 316 315
f 313 309 312 316
f 310 314 315 311
f 312 311 315 316
f 313 314 310 309
f 317 318 319 320
f 321 322 323 324
f 325 326 327 328
f 329 330 331 332
f 334 333 336 335
f 333 329 332 336
f 330 334 335 331
f 332 331 335 336
f 333 334 330 329
f 337 338 339 340
f 341 342 343 344
f 345 346 347 348
f 349 350 351 352
f 354 353 356 355
f 353 349 352 356
f 350 354 355 351
f 352 351 355 356
f 353 354 350 349
f 357 358 359 360
f 361 362 363 364
f 365 366 367 368
f 369 370 371 372
f 374 373 376 375
f 373 369 372 376
f 370 374 375 371
f 372 371 375 376
f 373 374 370 369
f 377 378 379 380
f 381 382 383 384
f 385 386 387 388
f 390 389 392 391
f 389 385 388 392
f 386 390 391 387
f 388 387 391 392
f 389 390 386 385
f 393 394 395 396
f 398 397 400 399
f 397 393 396 400
f 394 398 399 395
f 396 395 399 400
f 397 398 394 393
f 401 402 403 404
f 406 405 408 407
f 405 401 404 408
f 402 406 407 403
f 404 403 407 408
f 405 406 402 401
f 409 410 411 412
f 414 413 416 415
f 413 409 412 416
f 410 414 415 411
f 412 411 415 416
f 413 414 410 409
f 417 418 419 420
f 422 421 424 423
f 421 417 420 424
f 418 422 423 419
f 420 419 423 424
f 421 422 418 417
f 425 426 427 428
f 430 429 432 431
f 429 425 428 432
f 426 430 431 427
f 428 427 431 432
f 429 430 426 425
f 433 434 435 436
f 438 437 440 439
f 437 433 436 440
f 434 438 439 435
f 436 435 439 440
f 437 438 434 433
f 441 442 443 444
f 446 445 448 447
f 445 441 444 448
f 442 446 447 443
f 444 443 447 448
f 445 446 442 441
f 449 450 451 452
f 454 453 456 455
f 453 449 452 456
f 450 454 455 451
f 452 451 455 456
f 453 454 450 449
f 457 458 459 460
f 462 461 464 463
f 461 457 460 464
f 458 462 463 459
f 460 459 463 464
f 461 462 458 457
f 465 466 467 468
f 470 469 472 471
f 469 465 468 472
f 466 470 471 467
f 468 467 471 472
f 469 470 466 465
f 473 474 475 476
f 478 477 480 479
f 477 473 476 480
f 474 478 479 475
f 476 475 479 480
f 477 478 474 473
f 481 482 483 484
f 486 485 488 487
f 485 481 484 488
f 482 486 487 483
f 484 483 487 488
f 485 486 482 481
f 489 490 491 492
f 494 493 496 495
f 493 489 492 496
f 490 494 495 491
f 492 491 495 496
f 493 494 490 489
