# Wavefront OBJ: Object 03 - 3D Corrugated Kawara Ceramic Roof & Sheltering Eaves
# Vertices: 452, Faces: 217
v -3.2000 0.0000 2.4000
v 3.2000 0.0000 2.4000
v 3.2000 0.9000 2.4000
v -3.2000 0.9000 2.4000
v -3.2000 0.0000 -2.4000
v 3.2000 0.0000 -2.4000
v 3.2000 0.9000 -2.4000
v -3.2000 0.9000 -2.4000
v -3.2000 0.8800 2.4600
v 3.2000 0.8800 2.4600
v 3.2000 1.0200 2.4600
v -3.2000 1.0200 2.4600
v -3.2000 0.8800 2.3600
v 3.2000 0.8800 2.3600
v 3.2000 1.0200 2.3600
v -3.2000 1.0200 2.3600
v -3.6200 1.0500 3.1500
v 3.6200 1.0500 3.1500
v 3.6200 2.4500 0.0000
v -3.6200 2.4500 0.0000
v 3.6200 2.4500 0.0000
v 3.6200 1.2500 -2.7500
v -3.6200 1.2500 -2.7500
v -3.6200 2.4500 0.0000
v -3.6200 0.9100 -2.7500
v 3.6200 0.9100 -2.7500
v 3.6200 0.9100 3.1500
v -3.6200 0.9100 3.1500
v -3.6200 0.9100 3.1500
v 3.6200 0.9100 3.1500
v 3.6200 1.0500 3.1500
v -3.6200 1.0500 3.1500
v 3.6200 0.9100 -2.7500
v -3.6200 0.9100 -2.7500
v -3.6200 1.2500 -2.7500
v 3.6200 1.2500 -2.7500
v 3.6200 0.9100 3.1500
v 3.6200 1.0500 3.1500
v 3.6200 2.4500 0.0000
v 3.6200 0.9100 0.0000
v 3.6200 0.9100 0.0000
v 3.6200 2.4500 0.0000
v 3.6200 1.2500 -2.7500
v 3.6200 0.9100 -2.7500
v -3.6200 0.9100 0.0000
v -3.6200 2.4500 0.0000
v -3.6200 1.0500 3.1500
v -3.6200 0.9100 3.1500
v -3.6200 0.9100 -2.7500
v -3.6200 1.2500 -2.7500
v -3.6200 2.4500 0.0000
v -3.6200 0.9100 0.0000
v -3.4640 1.0546 3.1520
v -3.4400 1.0847 3.1654
v -3.4400 2.4847 0.0154
v -3.4640 2.4546 0.0020
v -3.4400 1.0847 3.1654
v -3.4160 1.0546 3.1520
v -3.4160 2.4546 0.0020
v -3.4400 2.4847 0.0154
v -3.1649 1.0546 3.1520
v -3.1409 1.0847 3.1654
v -3.1409 2.4847 0.0154
v -3.1649 2.4546 0.0020
v -3.1409 1.0847 3.1654
v -3.1169 1.0546 3.1520
v -3.1169 2.4546 0.0020
v -3.1409 2.4847 0.0154
v -2.8657 1.0546 3.1520
v -2.8417 1.0847 3.1654
v -2.8417 2.4847 0.0154
v -2.8657 2.4546 0.0020
v -2.8417 1.0847 3.1654
v -2.8177 1.0546 3.1520
v -2.8177 2.4546 0.0020
v -2.8417 2.4847 0.0154
v -2.5666 1.0546 3.1520
v -2.5426 1.0847 3.1654
v -2.5426 2.4847 0.0154
v -2.5666 2.4546 0.0020
v -2.5426 1.0847 3.1654
v -2.5186 1.0546 3.1520
v -2.5186 2.4546 0.0020
v -2.5426 2.4847 0.0154
v -2.2675 1.0546 3.1520
v -2.2435 1.0847 3.1654
v -2.2435 2.4847 0.0154
v -2.2675 2.4546 0.0020
v -2.2435 1.0847 3.1654
v -2.2195 1.0546 3.1520
v -2.2195 2.4546 0.0020
v -2.2435 2.4847 0.0154
v -1.9683 1.0546 3.1520
v -1.9443 1.0847 3.1654
v -1.9443 2.4847 0.0154
v -1.9683 2.4546 0.0020
v -1.9443 1.0847 3.1654
v -1.9203 1.0546 3.1520
v -1.9203 2.4546 0.0020
v -1.9443 2.4847 0.0154
v -1.6692 1.0546 3.1520
v -1.6452 1.0847 3.1654
v -1.6452 2.4847 0.0154
v -1.6692 2.4546 0.0020
v -1.6452 1.0847 3.1654
v -1.6212 1.0546 3.1520
v -1.6212 2.4546 0.0020
v -1.6452 2.4847 0.0154
v -1.3701 1.0546 3.1520
v -1.3461 1.0847 3.1654
v -1.3461 2.4847 0.0154
v -1.3701 2.4546 0.0020
v -1.3461 1.0847 3.1654
v -1.3221 1.0546 3.1520
v -1.3221 2.4546 0.0020
v -1.3461 2.4847 0.0154
v -1.0710 1.0546 3.1520
v -1.0470 1.0847 3.1654
v -1.0470 2.4847 0.0154
v -1.0710 2.4546 0.0020
v -1.0470 1.0847 3.1654
v -1.0230 1.0546 3.1520
v -1.0230 2.4546 0.0020
v -1.0470 2.4847 0.0154
v -0.7718 1.0546 3.1520
v -0.7478 1.0847 3.1654
v -0.7478 2.4847 0.0154
v -0.7718 2.4546 0.0020
v -0.7478 1.0847 3.1654
v -0.7238 1.0546 3.1520
v -0.7238 2.4546 0.0020
v -0.7478 2.4847 0.0154
v -0.4727 1.0546 3.1520
v -0.4487 1.0847 3.1654
v -0.4487 2.4847 0.0154
v -0.4727 2.4546 0.0020
v -0.4487 1.0847 3.1654
v -0.4247 1.0546 3.1520
v -0.4247 2.4546 0.0020
v -0.4487 2.4847 0.0154
v -0.1736 1.0546 3.1520
v -0.1496 1.0847 3.1654
v -0.1496 2.4847 0.0154
v -0.1736 2.4546 0.0020
v -0.1496 1.0847 3.1654
v -0.1256 1.0546 3.1520
v -0.1256 2.4546 0.0020
v -0.1496 2.4847 0.0154
v 0.1256 1.0546 3.1520
v 0.1496 1.0847 3.1654
v 0.1496 2.4847 0.0154
v 0.1256 2.4546 0.0020
v 0.1496 1.0847 3.1654
v 0.1736 1.0546 3.1520
v 0.1736 2.4546 0.0020
v 0.1496 2.4847 0.0154
v 0.4247 1.0546 3.1520
v 0.4487 1.0847 3.1654
v 0.4487 2.4847 0.0154
v 0.4247 2.4546 0.0020
v 0.4487 1.0847 3.1654
v 0.4727 1.0546 3.1520
v 0.4727 2.4546 0.0020
v 0.4487 2.4847 0.0154
v 0.7238 1.0546 3.1520
v 0.7478 1.0847 3.1654
v 0.7478 2.4847 0.0154
v 0.7238 2.4546 0.0020
v 0.7478 1.0847 3.1654
v 0.7718 1.0546 3.1520
v 0.7718 2.4546 0.0020
v 0.7478 2.4847 0.0154
v 1.0230 1.0546 3.1520
v 1.0470 1.0847 3.1654
v 1.0470 2.4847 0.0154
v 1.0230 2.4546 0.0020
v 1.0470 1.0847 3.1654
v 1.0710 1.0546 3.1520
v 1.0710 2.4546 0.0020
v 1.0470 2.4847 0.0154
v 1.3221 1.0546 3.1520
v 1.3461 1.0847 3.1654
v 1.3461 2.4847 0.0154
v 1.3221 2.4546 0.0020
v 1.3461 1.0847 3.1654
v 1.3701 1.0546 3.1520
v 1.3701 2.4546 0.0020
v 1.3461 2.4847 0.0154
v 1.6212 1.0546 3.1520
v 1.6452 1.0847 3.1654
v 1.6452 2.4847 0.0154
v 1.6212 2.4546 0.0020
v 1.6452 1.0847 3.1654
v 1.6692 1.0546 3.1520
v 1.6692 2.4546 0.0020
v 1.6452 2.4847 0.0154
v 1.9203 1.0546 3.1520
v 1.9443 1.0847 3.1654
v 1.9443 2.4847 0.0154
v 1.9203 2.4546 0.0020
v 1.9443 1.0847 3.1654
v 1.9683 1.0546 3.1520
v 1.9683 2.4546 0.0020
v 1.9443 2.4847 0.0154
v 2.2195 1.0546 3.1520
v 2.2435 1.0847 3.1654
v 2.2435 2.4847 0.0154
v 2.2195 2.4546 0.0020
v 2.2435 1.0847 3.1654
v 2.2675 1.0546 3.1520
v 2.2675 2.4546 0.0020
v 2.2435 2.4847 0.0154
v 2.5186 1.0546 3.1520
v 2.5426 1.0847 3.1654
v 2.5426 2.4847 0.0154
v 2.5186 2.4546 0.0020
v 2.5426 1.0847 3.1654
v 2.5666 1.0546 3.1520
v 2.5666 2.4546 0.0020
v 2.5426 2.4847 0.0154
v 2.8177 1.0546 3.1520
v 2.8417 1.0847 3.1654
v 2.8417 2.4847 0.0154
v 2.8177 2.4546 0.0020
v 2.8417 1.0847 3.1654
v 2.8657 1.0546 3.1520
v 2.8657 2.4546 0.0020
v 2.8417 2.4847 0.0154
v 3.1169 1.0546 3.1520
v 3.1409 1.0847 3.1654
v 3.1409 2.4847 0.0154
v 3.1169 2.4546 0.0020
v 3.1409 1.0847 3.1654
v 3.1649 1.0546 3.1520
v 3.1649 2.4546 0.0020
v 3.1409 2.4847 0.0154
v 3.4160 1.0546 3.1520
v 3.4400 1.0847 3.1654
v 3.4400 2.4847 0.0154
v 3.4160 2.4546 0.0020
v 3.4400 1.0847 3.1654
v 3.4640 1.0546 3.1520
v 3.4640 2.4546 0.0020
v 3.4400 2.4847 0.0154
v -3.3775 0.9375 3.0750
v -3.3225 0.9375 3.0750
v -3.3225 1.0025 3.0750
v -3.3775 1.0025 3.0750
v -3.3775 0.9375 2.3250
v -3.3225 0.9375 2.3250
v -3.3225 1.0025 2.3250
v -3.3775 1.0025 2.3250
v -2.9308 0.9375 3.0750
v -2.8758 0.9375 3.0750
v -2.8758 1.0025 3.0750
v -2.9308 1.0025 3.0750
v -2.9308 0.9375 2.3250
v -2.8758 0.9375 2.3250
v -2.8758 1.0025 2.3250
v -2.9308 1.0025 2.3250
v -2.4842 0.9375 3.0750
v -2.4292 0.9375 3.0750
v -2.4292 1.0025 3.0750
v -2.4842 1.0025 3.0750
v -2.4842 0.9375 2.3250
v -2.4292 0.9375 2.3250
v -2.4292 1.0025 2.3250
v -2.4842 1.0025 2.3250
v -2.0375 0.9375 3.0750
v -1.9825 0.9375 3.0750
v -1.9825 1.0025 3.0750
v -2.0375 1.0025 3.0750
v -2.0375 0.9375 2.3250
v -1.9825 0.9375 2.3250
v -1.9825 1.0025 2.3250
v -2.0375 1.0025 2.3250
v -1.5908 0.9375 3.0750
v -1.5358 0.9375 3.0750
v -1.5358 1.0025 3.0750
v -1.5908 1.0025 3.0750
v -1.5908 0.9375 2.3250
v -1.5358 0.9375 2.3250
v -1.5358 1.0025 2.3250
v -1.5908 1.0025 2.3250
v -1.1442 0.9375 3.0750
v -1.0892 0.9375 3.0750
v -1.0892 1.0025 3.0750
v -1.1442 1.0025 3.0750
v -1.1442 0.9375 2.3250
v -1.0892 0.9375 2.3250
v -1.0892 1.0025 2.3250
v -1.1442 1.0025 2.3250
v -0.6975 0.9375 3.0750
v -0.6425 0.9375 3.0750
v -0.6425 1.0025 3.0750
v -0.6975 1.0025 3.0750
v -0.6975 0.9375 2.3250
v -0.6425 0.9375 2.3250
v -0.6425 1.0025 2.3250
v -0.6975 1.0025 2.3250
v -0.2508 0.9375 3.0750
v -0.1958 0.9375 3.0750
v -0.1958 1.0025 3.0750
v -0.2508 1.0025 3.0750
v -0.2508 0.9375 2.3250
v -0.1958 0.9375 2.3250
v -0.1958 1.0025 2.3250
v -0.2508 1.0025 2.3250
v 0.1958 0.9375 3.0750
v 0.2508 0.9375 3.0750
v 0.2508 1.0025 3.0750
v 0.1958 1.0025 3.0750
v 0.1958 0.9375 2.3250
v 0.2508 0.9375 2.3250
v 0.2508 1.0025 2.3250
v 0.1958 1.0025 2.3250
v 0.6425 0.9375 3.0750
v 0.6975 0.9375 3.0750
v 0.6975 1.0025 3.0750
v 0.6425 1.0025 3.0750
v 0.6425 0.9375 2.3250
v 0.6975 0.9375 2.3250
v 0.6975 1.0025 2.3250
v 0.6425 1.0025 2.3250
v 1.0892 0.9375 3.0750
v 1.1442 0.9375 3.0750
v 1.1442 1.0025 3.0750
v 1.0892 1.0025 3.0750
v 1.0892 0.9375 2.3250
v 1.1442 0.9375 2.3250
v 1.1442 1.0025 2.3250
v 1.0892 1.0025 2.3250
v 1.5358 0.9375 3.0750
v 1.5908 0.9375 3.0750
v 1.5908 1.0025 3.0750
v 1.5358 1.0025 3.0750
v 1.5358 0.9375 2.3250
v 1.5908 0.9375 2.3250
v 1.5908 1.0025 2.3250
v 1.5358 1.0025 2.3250
v 1.9825 0.9375 3.0750
v 2.0375 0.9375 3.0750
v 2.0375 1.0025 3.0750
v 1.9825 1.0025 3.0750
v 1.9825 0.9375 2.3250
v 2.0375 0.9375 2.3250
v 2.0375 1.0025 2.3250
v 1.9825 1.0025 2.3250
v 2.4292 0.9375 3.0750
v 2.4842 0.9375 3.0750
v 2.4842 1.0025 3.0750
v 2.4292 1.0025 3.0750
v 2.4292 0.9375 2.3250
v 2.4842 0.9375 2.3250
v 2.4842 1.0025 2.3250
v 2.4292 1.0025 2.3250
v 2.8758 0.9375 3.0750
v 2.9308 0.9375 3.0750
v 2.9308 1.0025 3.0750
v 2.8758 1.0025 3.0750
v 2.8758 0.9375 2.3250
v 2.9308 0.9375 2.3250
v 2.9308 1.0025 2.3250
v 2.8758 1.0025 2.3250
v 3.3225 0.9375 3.0750
v 3.3775 0.9375 3.0750
v 3.3775 1.0025 3.0750
v 3.3225 1.0025 3.0750
v 3.3225 0.9375 2.3250
v 3.3775 0.9375 2.3250
v 3.3775 1.0025 2.3250
v 3.3225 1.0025 2.3250
v -3.6400 2.4600 0.1800
v 3.6400 2.4600 0.1800
v 3.6400 2.5200 0.1800
v -3.6400 2.5200 0.1800
v -3.6400 2.4600 -0.1800
v 3.6400 2.4600 -0.1800
v 3.6400 2.5200 -0.1800
v -3.6400 2.5200 -0.1800
v -3.6400 2.5150 0.1200
v 3.6400 2.5150 0.1200
v 3.6400 2.5650 0.1200
v -3.6400 2.5650 0.1200
v -3.6400 2.5150 -0.1200
v 3.6400 2.5150 -0.1200
v 3.6400 2.5650 -0.1200
v -3.6400 2.5650 -0.1200
v -3.6400 2.5600 0.0800
v 3.6400 2.5600 0.0800
v 3.6400 2.6000 0.0800
v -3.6400 2.6000 0.0800
v -3.6400 2.5600 -0.0800
v 3.6400 2.5600 -0.0800
v 3.6400 2.6000 -0.0800
v -3.6400 2.6000 -0.0800
v -3.7050 2.4300 0.1900
v -3.6150 2.4300 0.1900
v -3.6150 2.6300 0.1900
v -3.7050 2.6300 0.1900
v -3.7050 2.4300 -0.1900
v -3.6150 2.4300 -0.1900
v -3.6150 2.6300 -0.1900
v -3.7050 2.6300 -0.1900
v 3.6150 2.4300 0.1900
v 3.7050 2.4300 0.1900
v 3.7050 2.6300 0.1900
v 3.6150 2.6300 0.1900
v 3.6150 2.4300 -0.1900
v 3.7050 2.4300 -0.1900
v 3.7050 2.6300 -0.1900
v 3.6150 2.6300 -0.1900
v -3.6500 1.0050 3.2250
v 3.6500 1.0050 3.2250
v 3.6500 1.0550 3.2250
v -3.6500 1.0550 3.2250
v -3.6500 1.0050 3.1550
v 3.6500 1.0050 3.1550
v 3.6500 1.0550 3.1550
v -3.6500 1.0550 3.1550
v 3.5250 0.9450 3.2450
v 3.6350 0.9450 3.2450
v 3.6350 1.0750 3.2450
v 3.5250 1.0750 3.2450
v 3.5250 0.9450 3.1350
v 3.6350 0.9450 3.1350
v 3.6350 1.0750 3.1350
v 3.5250 1.0750 3.1350
v 3.5550 -0.0250 3.1250
v 3.6050 -0.0250 3.1250
v 3.6050 0.9250 3.1250
v 3.5550 0.9250 3.1250
v 3.5550 -0.0250 3.0750
v 3.6050 -0.0250 3.0750
v 3.6050 0.9250 3.0750
v 3.5550 0.9250 3.0750
v -3.5900 1.0200 3.2000
v -3.6900 1.0200 3.2000
v -3.6900 2.5000 0.0000
v -3.5900 2.5000 0.0000
v -3.6900 2.5000 0.0000
v -3.6900 1.2200 -2.8000
v -3.5900 1.2200 -2.8000
v -3.5900 2.5000 0.0000
v 3.5900 1.0200 3.2000
v 3.6900 1.0200 3.2000
v 3.6900 2.5000 0.0000
v 3.5900 2.5000 0.0000
v 3.6900 2.5000 0.0000
v 3.6900 1.2200 -2.8000
v 3.5900 1.2200 -2.8000
v 3.5900 2.5000 0.0000
f 1 2 3 4
f 6 5 8 7
f 5 1 4 8
f 2 6 7 3
f 4 3 7 8
f 5 6 2 1
f 9 10 11 12
f 14 13 16 15
f 13 9 12 16
f 10 14 15 11
f 12 11 15 16
f 13 14 10 9
f 17 18 19 20
f 21 22 23 24
f 25 26 27 28
f 29 30 31 32
f 33 34 35 36
f 37 38 39 40
f 41 42 43 44
f 45 46 47 48
f 49 50 51 52
f 53 54 55 56
f 57 58 59 60
f 61 62 63 64
f 65 66 67 68
f 69 70 71 72
f 73 74 75 76
f 77 78 79 80
f 81 82 83 84
f 85 86 87 88
f 89 90 91 92
f 93 94 95 96
f 97 98 99 100
f 101 102 103 104
f 105 106 107 108
f 109 110 111 112
f 113 114 115 116
f 117 118 119 120
f 121 122 123 124
f 125 126 127 128
f 129 130 131 132
f 133 134 135 136
f 137 138 139 140
f 141 142 143 144
f 145 146 147 148
f 149 150 151 152
f 153 154 155 156
f 157 158 159 160
f 161 162 163 164
f 165 166 167 168
f 169 170 171 172
f 173 174 175 176
f 177 178 179 180
f 181 182 183 184
f 185 186 187 188
f 189 190 191 192
f 193 194 195 196
f 197 198 199 200
f 201 202 203 204
f 205 206 207 208
f 209 210 211 212
f 213 214 215 216
f 217 218 219 220
f 221 222 223 224
f 225 226 227 228
f 229 230 231 232
f 233 234 235 236
f 237 238 239 240
f 241 242 243 244
f 245 246 247 248
f 250 249 252 251
f 249 245 248 252
f 246 250 251 247
f 248 247 251 252
f 249 250 246 245
f 253 254 255 256
f 258 257 260 259
f 257 253 256 260
f 254 258 259 255
f 256 255 259 260
f 257 258 254 253
f 261 262 263 264
f 266 265 268 267
f 265 261 264 268
f 262 266 267 263
f 264 263 267 268
f 265 266 262 261
f 269 270 271 272
f 274 273 276 275
f 273 269 272 276
f 270 274 275 271
f 272 271 275 276
f 273 274 270 269
f 277 278 279 280
f 282 281 284 283
f 281 277 280 284
f 278 282 283 279
f 280 279 283 284
f 281 282 278 277
f 285 286 287 288
f 290 289 292 291
f 289 285 288 292
f 286 290 291 287
f 288 287 291 292
f 289 290 286 285
f 293 294 295 296
f 298 297 300 299
f 297 293 296 300
f 294 298 299 295
f 296 295 299 300
f 297 298 294 293
f 301 302 303 304
f 306 305 308 307
f 305 301 304 308
f 302 306 307 303
f 304 303 307 308
f 305 306 302 301
f 309 310 311 312
f 314 313 316 315
f 313 309 312 316
f 310 314 315 311
f 312 311 315 316
f 313 314 310 309
f 317 318 319 320
f 322 321 324 323
f 321 317 320 324
f 318 322 323 319
f 320 319 323 324
f 321 322 318 317
f 325 326 327 328
f 330 329 332 331
f 329 325 328 332
f 326 330 331 327
f 328 327 331 332
f 329 330 326 325
f 333 334 335 336
f 338 337 340 339
f 337 333 336 340
f 334 338 339 335
f 336 335 339 340
f 337 338 334 333
f 341 342 343 344
f 346 345 348 347
f 345 341 344 348
f 342 346 347 343
f 344 343 347 348
f 345 346 342 341
f 349 350 351 352
f 354 353 356 355
f 353 349 352 356
f 350 354 355 351
f 352 351 355 356
f 353 354 350 349
f 357 358 359 360
f 362 361 364 363
f 361 357 360 364
f 358 362 363 359
f 360 359 363 364
f 361 362 358 357
f 365 366 367 368
f 370 369 372 371
f 369 365 368 372
f 366 370 371 367
f 368 367 371 372
f 369 370 366 365
f 373 374 375 376
f 378 377 380 379
f 377 373 376 380
f 374 378 379 375
f 376 375 379 380
f 377 378 374 373
f 381 382 383 384
f 386 385 388 387
f 385 381 384 388
f 382 386 387 383
f 384 383 387 388
f 385 386 382 381
f 389 390 391 392
f 394 393 396 395
f 393 389 392 396
f 390 394 395 391
f 392 391 395 396
f 393 394 390 389
f 397 398 399 400
f 402 401 404 403
f 401 397 400 404
f 398 402 403 399
f 400 399 403 404
f 401 402 398 397
f 405 406 407 408
f 410 409 412 411
f 409 405 408 412
f 406 410 411 407
f 408 407 411 412
f 409 410 406 405
f 413 414 415 416
f 418 417 420 419
f 417 413 416 420
f 414 418 419 415
f 416 415 419 420
f 417 418 414 413
f 421 422 423 424
f 426 425 428 427
f 425 421 424 428
f 422 426 427 423
f 424 423 427 428
f 425 426 422 421
f 429 430 431 432
f 434 433 436 435
f 433 429 432 436
f 430 434 435 431
f 432 431 435 436
f 433 434 430 429
f 437 438 439 440
f 441 442 443 444
f 445 446 447 448
f 449 450 451 452
